# Blender 4.4.0
# www.blender.org
mtllib ClayQuarryBlender.mtl
o Circle
v 0.000000 0.000000 -1.000000
v -0.866025 0.000000 -0.500000
v -0.866025 0.000000 0.500000
v 0.000000 0.000000 1.000000
v 0.866025 0.000000 0.500000
v 0.866025 0.000000 -0.500000
v 0.000000 0.080800 -0.807125
v -0.698883 -0.021383 -0.403624
v -0.706404 0.054339 0.390254
v 0.000000 0.418257 0.807125
v 0.700906 -0.038511 0.401172
v 0.698990 0.172700 -0.403562
v 0.000000 0.000000 -0.652597
v -0.565165 0.000000 -0.326298
v -0.565165 0.000000 0.326298
v 0.002454 -0.044452 0.624361
v 0.567856 -0.024087 0.327940
v 0.565165 0.000000 -0.326298
v 0.032422 -0.179133 -0.468846
v -0.373610 -0.179133 -0.234423
v -0.373610 -0.179133 0.234423
v 0.032422 -0.179133 0.468846
v 0.438455 -0.179133 0.234423
v 0.438455 -0.179133 -0.234423
v 0.032422 -0.179133 -0.334887
v -0.262858 -0.200733 -0.170480
v -0.257598 -0.179133 0.167443
v 0.032423 -0.211650 0.344031
v 0.322443 -0.179133 0.167443
v 0.330564 -0.212480 -0.172132
v 0.032422 -0.295413 -0.222692
v -0.160434 -0.295413 -0.111346
v -0.160434 -0.295413 0.111346
v 0.032422 -0.295413 0.222692
v 0.225279 -0.295413 0.111346
v 0.225279 -0.295413 -0.111346
v 0.032422 -0.309337 -0.105249
v -0.082258 -0.286740 -0.056096
v -0.052945 -0.288755 0.072437
v 0.054737 -0.301863 0.121116
v 0.131780 -0.288856 0.058465
v 0.123571 -0.295413 -0.052624
vn 0.2177 0.9002 -0.3771
vn -0.1116 0.9748 -0.1933
vn -0.3223 0.9467 -0.0000
vn 0.7188 0.6952 -0.0000
vn -0.4643 0.3709 0.8043
vn 0.0635 0.9919 0.1100
vn 0.0341 0.9905 0.1331
vn 0.3232 0.9423 -0.0868
vn -0.7398 0.6504 0.1725
vn 0.4592 0.3285 -0.8254
vn -0.0789 0.9875 -0.1366
vn -0.2584 0.8561 0.4476
vn 0.3577 0.7389 -0.5710
vn 0.3573 0.6995 0.6189
vn -0.3908 0.6237 0.6770
vn -0.3583 0.6830 -0.6365
vn 0.6830 0.7304 -0.0000
vn -0.8164 0.5775 -0.0000
vn -0.0000 1.0000 -0.0000
vn -0.2953 0.9554 -0.0000
vn 0.1440 0.9576 -0.2495
vn 0.0957 0.9815 0.1658
vn -0.3837 0.6412 0.6646
vn -0.4426 0.6618 -0.6051
vn 0.7534 0.6554 -0.0536
vn -0.6478 0.7565 -0.0898
vn 0.4013 0.7538 -0.5203
vn 0.2985 0.7166 0.6303
vn 0.1355 0.9902 -0.0331
vn -0.0496 0.9951 -0.0860
vn -0.0678 0.9908 0.1175
vn 0.0353 0.9975 0.0612
vn -0.0618 0.9981 -0.0000
vn -0.0085 0.9928 -0.1191
vn 0.3027 0.6708 -0.6770
vn 0.6241 0.3272 0.7095
vn 0.1782 0.9797 -0.0918
vn -0.3536 0.9046 0.2383
vn -0.3954 0.9100 -0.1245
vn -0.3370 0.8684 -0.3638
vn -0.2878 0.3505 -0.8913
vn -0.1579 0.9875 -0.0000
vn 0.0879 0.9955 0.0363
vn -0.0045 0.7571 -0.6533
vn 0.1367 0.8779 0.4590
vn -0.4485 0.6308 0.6332
vn 0.3573 0.6995 -0.6189
vn -0.3737 0.6643 -0.6473
vn -0.7753 0.6311 0.0264
vn 0.2274 0.9716 -0.0656
vn 0.0556 0.9938 -0.0963
vn 0.0542 0.9941 0.0940
vn -0.0730 0.9973 -0.0000
vn -0.0865 0.9329 0.3496
vn -0.2534 0.9361 -0.2439
vn -0.2461 0.7565 0.6059
vn -0.3117 0.7820 -0.5398
vn 0.6788 0.7343 -0.0000
vn -0.7674 0.6412 -0.0000
vn 0.3837 0.6412 -0.6646
vn 0.3837 0.6412 0.6646
vn 0.1072 0.9920 -0.0665
vn -0.0380 0.9971 0.0658
vn 0.2390 0.9643 0.1143
vn -0.0755 0.9885 -0.1308
vn -0.2574 0.9591 -0.1175
vn -0.1438 0.9884 0.0483
vn 0.1824 0.9829 -0.0262
vn -0.1229 0.9912 -0.0494
vn 0.0175 0.9745 0.2238
vt 0.000000 0.000000
s 0
usemtl Material.001
f 6/1/1 1/1/1 7/1/1
f 4/1/2 5/1/2 11/1/2
f 2/1/3 3/1/3 9/1/3
f 5/1/4 6/1/4 12/1/4
f 3/1/5 4/1/5 10/1/5
f 1/1/6 2/1/6 8/1/6
f 11/1/7 17/1/7 16/1/7
f 8/1/8 9/1/8 15/1/8
f 11/1/9 12/1/9 18/1/9
f 10/1/10 16/1/10 15/1/10
f 8/1/11 14/1/11 13/1/11
f 7/1/12 13/1/12 18/1/12
f 15/1/13 16/1/13 22/1/13
f 13/1/14 14/1/14 20/1/14
f 18/1/15 13/1/15 19/1/15
f 16/1/16 17/1/16 23/1/16
f 15/1/17 21/1/17 20/1/17
f 18/1/18 24/1/18 23/1/18
f 20/1/19 21/1/19 27/1/19
f 23/1/20 24/1/20 30/1/20
f 21/1/21 22/1/21 28/1/21
f 19/1/22 20/1/22 26/1/22
f 24/1/19 19/1/19 25/1/19
f 22/1/19 23/1/19 29/1/19
f 25/1/23 31/1/23 36/1/23
f 28/1/24 29/1/24 35/1/24
f 26/1/25 27/1/25 33/1/25
f 29/1/26 30/1/26 36/1/26
f 27/1/27 28/1/27 34/1/27
f 25/1/28 26/1/28 32/1/28
f 35/1/19 36/1/19 42/1/19
f 34/1/29 40/1/29 39/1/29
f 31/1/30 32/1/30 38/1/30
f 36/1/31 31/1/31 37/1/31
f 34/1/32 35/1/32 41/1/32
f 32/1/33 33/1/33 39/1/33
f 37/1/34 39/1/34 41/1/34
f 6/1/35 7/1/35 12/1/35
f 4/1/36 11/1/36 10/1/36
f 2/1/37 9/1/37 8/1/37
f 5/1/38 12/1/38 11/1/38
f 3/1/39 10/1/39 9/1/39
f 1/1/40 8/1/40 7/1/40
f 11/1/41 16/1/41 10/1/41
f 8/1/42 15/1/42 14/1/42
f 11/1/43 18/1/43 17/1/43
f 10/1/44 15/1/44 9/1/44
f 8/1/45 13/1/45 7/1/45
f 7/1/46 18/1/46 12/1/46
f 15/1/47 22/1/47 21/1/47
f 13/1/14 20/1/14 19/1/14
f 18/1/15 19/1/15 24/1/15
f 16/1/48 23/1/48 22/1/48
f 15/1/17 20/1/17 14/1/17
f 18/1/49 23/1/49 17/1/49
f 20/1/50 27/1/50 26/1/50
f 23/1/51 30/1/51 29/1/51
f 21/1/52 28/1/52 27/1/52
f 19/1/53 26/1/53 25/1/53
f 24/1/54 25/1/54 30/1/54
f 22/1/55 29/1/55 28/1/55
f 25/1/56 36/1/56 30/1/56
f 28/1/57 35/1/57 34/1/57
f 26/1/58 33/1/58 32/1/58
f 29/1/59 36/1/59 35/1/59
f 27/1/60 34/1/60 33/1/60
f 25/1/61 32/1/61 31/1/61
f 35/1/62 42/1/62 41/1/62
f 34/1/63 39/1/63 33/1/63
f 31/1/64 38/1/64 37/1/64
f 36/1/65 37/1/65 42/1/65
f 34/1/66 41/1/66 40/1/66
f 32/1/67 39/1/67 38/1/67
f 39/1/68 37/1/68 38/1/68
f 37/1/69 41/1/69 42/1/69
f 41/1/70 39/1/70 40/1/70
